<svg width="20.000000" height="20.000000" viewBox="0 0 20 20" fill="none" xmlns="http://www.w3.org/2000/svg" xmlns:xlink="http://www.w3.org/1999/xlink">
	<desc>
			Created with Pixso.
	</desc>
	<defs/>
	<mask id="mask_712_207" fill="white">
		<path id="Icon color" d="M10 0C4.47705 0 0 4.47705 0 10C0 15.5229 4.47705 20 10 20C15.5229 20 20 15.5229 20 10C20 7.3479 18.9465 4.8042 17.071 2.92896C15.1958 1.05347 12.6521 0 10 0ZM8.72998 13.3501L14.3501 7.72998C14.5342 7.53687 14.5342 7.23315 14.3501 7.04004L13.8201 6.51001C13.6257 6.31958 13.3145 6.31958 13.1201 6.51001L8.38013 11.25L6.88013 9.76001C6.78931 9.66333 6.6626 9.6084 6.53003 9.6084C6.39746 9.6084 6.27075 9.66333 6.18018 9.76001L5.65015 10.29C5.55542 10.384 5.5022 10.5117 5.5022 10.645C5.5022 10.7783 5.55542 10.9062 5.65015 11L8.03003 13.3501C8.12085 13.4468 8.24756 13.5015 8.38013 13.5015C8.5127 13.5015 8.6394 13.4468 8.72998 13.3501Z" clip-rule="evenodd" fill="" fill-opacity="1.000000" fill-rule="evenodd"/>
	</mask>
	<path id="Icon color" d="M10 0C4.47705 0 0 4.47705 0 10C0 15.5229 4.47705 20 10 20C15.5229 20 20 15.5229 20 10C20 7.3479 18.9465 4.8042 17.071 2.92896C15.1958 1.05347 12.6521 0 10 0ZM8.72998 13.3501L14.3501 7.72998C14.5342 7.53687 14.5342 7.23315 14.3501 7.04004L13.8201 6.51001C13.6257 6.31958 13.3145 6.31958 13.1201 6.51001L8.38013 11.25L6.88013 9.76001C6.78931 9.66333 6.6626 9.6084 6.53003 9.6084C6.39746 9.6084 6.27075 9.66333 6.18018 9.76001L5.65015 10.29C5.55542 10.384 5.5022 10.5117 5.5022 10.645C5.5022 10.7783 5.55542 10.9062 5.65015 11L8.03003 13.3501C8.12085 13.4468 8.24756 13.5015 8.38013 13.5015C8.5127 13.5015 8.6394 13.4468 8.72998 13.3501Z" clip-rule="evenodd" fill="#A18A68" fill-opacity="1.000000" fill-rule="evenodd" mask="url(#mask_712_207)"/>
	<path id="Icon color" d="" fill="#979797" fill-opacity="0.000000" fill-rule="nonzero"/>
</svg>
