<svg width="14.000000" height="7.921327" viewBox="0 0 14 7.92133" fill="none" xmlns="http://www.w3.org/2000/svg" xmlns:xlink="http://www.w3.org/1999/xlink">
	<desc>
			Created with Pixso.
	</desc>
	<defs/>
	<path id="Icon color" d="M12.65 0.1C12.72 0.03 12.81 9.53e-7 12.9 9.53e-7C12.99 9.53e-7 13.08 0.03 13.15 0.1L13.89 0.84C13.96 0.9 14 0.99 14 1.09C14 1.18 13.96 1.27 13.89 1.33L7.46 7.76C7.36 7.86 7.23 7.92 7.09 7.92L6.9 7.92C6.76 7.92 6.63 7.86 6.53 7.76L0.1 1.33C0.03 1.27 0 1.18 0 1.09C0 0.99 0.03 0.9 0.1 0.84L0.84 0.1C0.91 0.03 1 0 1.09 0C1.18 0 1.27 0.03 1.34 0.1L7 5.75L12.65 0.1Z" fill="#000000" fill-opacity="1.000000" fill-rule="nonzero"/>
	<path id="Icon color" d="M12.9 9.53e-7C12.99 9.53e-7 13.08 0.03 13.15 0.1L13.89 0.84C13.96 0.9 14 0.99 14 1.09C14 1.18 13.96 1.27 13.89 1.33L7.46 7.76C7.36 7.86 7.23 7.92 7.09 7.92L6.9 7.92C6.76 7.92 6.63 7.86 6.53 7.76L0.1 1.33C0.03 1.27 0 1.18 0 1.09C0 0.99 0.03 0.9 0.1 0.84L0.84 0.1C0.91 0.03 1 0 1.09 0C1.18 0 1.27 0.03 1.34 0.1L7 5.75L12.65 0.1C12.72 0.03 12.81 9.53e-7 12.9 9.53e-7Z" stroke="#979797" stroke-opacity="0" stroke-width="0.000000"/>
</svg>
