<svg width="20.192932" height="15.199219" viewBox="0 0 20.1929 15.1992" fill="none" xmlns="http://www.w3.org/2000/svg" xmlns:xlink="http://www.w3.org/1999/xlink">
	<desc>
			Created with Pixso.
	</desc>
	<defs/>
	<path id="Vector" d="M0.72 1.97L19.46 1.97C19.81 1.97 20.09 1.55 20.09 1.03C20.09 0.51 19.81 0.09 19.46 0.09L0.72 0.09C0.37 0.09 0.09 0.51 0.09 1.03C0.1 1.55 0.38 1.97 0.72 1.97Z" fill="#000000" fill-opacity="1.000000" fill-rule="nonzero"/>
	<path id="Vector" d="M19.46 1.97C19.81 1.97 20.09 1.55 20.09 1.03C20.09 0.51 19.81 0.09 19.46 0.09L0.72 0.09C0.37 0.09 0.09 0.51 0.09 1.03C0.1 1.55 0.38 1.97 0.72 1.97L19.46 1.97Z" stroke="#FFFFFF" stroke-opacity="1.000000" stroke-width="0.200000"/>
	<path id="Vector" d="M19.46 6.66L0.72 6.66C0.37 6.66 0.1 7.08 0.1 7.59C0.1 8.11 0.38 8.53 0.72 8.53L19.46 8.53C19.81 8.53 20.09 8.11 20.09 7.59C20.09 7.08 19.81 6.66 19.46 6.66Z" fill="#000000" fill-opacity="1.000000" fill-rule="nonzero"/>
	<path id="Vector" d="M0.72 6.66C0.37 6.66 0.1 7.08 0.1 7.59C0.1 8.11 0.38 8.53 0.72 8.53L19.46 8.53C19.81 8.53 20.09 8.11 20.09 7.59C20.09 7.08 19.81 6.66 19.46 6.66L0.72 6.66Z" stroke="#FFFFFF" stroke-opacity="1.000000" stroke-width="0.200000"/>
	<path id="Vector" d="M19.46 13.22L6.97 13.22C6.62 13.22 6.34 13.64 6.34 14.16C6.34 14.67 6.62 15.09 6.97 15.09L19.46 15.09C19.81 15.09 20.09 14.67 20.09 14.16C20.09 13.64 19.81 13.22 19.46 13.22Z" fill="#000000" fill-opacity="1.000000" fill-rule="nonzero"/>
	<path id="Vector" d="M6.97 13.22C6.62 13.22 6.34 13.64 6.34 14.16C6.34 14.67 6.62 15.09 6.97 15.09L19.46 15.09C19.81 15.09 20.09 14.67 20.09 14.16C20.09 13.64 19.81 13.22 19.46 13.22L6.97 13.22Z" stroke="#FFFFFF" stroke-opacity="1.000000" stroke-width="0.200000"/>
</svg>
