<svg width="32.000000" height="32.000000" viewBox="0 0 32 32" fill="none" xmlns="http://www.w3.org/2000/svg" xmlns:xlink="http://www.w3.org/1999/xlink">
	<desc>
			Created with Pixso.
	</desc>
	<defs>
		<clipPath id="clip2046_6490">
			<rect id="eye-svgrepo-com 1" width="32.000000" height="32.000000" fill="white" fill-opacity="0"/>
		</clipPath>
	</defs>
	<rect id="eye-svgrepo-com 1" width="32.000000" height="32.000000" fill="#FFFFFF" fill-opacity="0"/>
	<g clip-path="url(#clip2046_6490)">
		<path id="Vector" d="M2.12 16L3.76 17.63C10.51 24.38 21.49 24.38 28.24 17.63L29.87 16L28.23 14.36C21.48 7.61 10.5 7.61 3.75 14.36L2.12 16ZM15.99 23.88C11.26 23.88 6.52 22.08 2.91 18.47L0.86 16.41C0.63 16.18 0.63 15.81 0.86 15.57L2.91 13.51C10.13 6.3 21.86 6.3 29.08 13.51L31.13 15.57C31.36 15.8 31.36 16.18 31.13 16.41L29.08 18.47C25.47 22.08 20.73 23.88 15.99 23.88Z" fill="#000000" fill-opacity="1.000000" fill-rule="nonzero"/>
		<path id="Vector" d="M3.76 17.63C10.51 24.38 21.49 24.38 28.24 17.63L29.87 16L28.23 14.36C21.48 7.61 10.5 7.61 3.75 14.36L2.12 16L3.76 17.63ZM2.91 18.47L0.86 16.41C0.63 16.18 0.63 15.81 0.86 15.57L2.91 13.51C10.13 6.3 21.86 6.3 29.08 13.51L31.13 15.57C31.36 15.8 31.36 16.18 31.13 16.41L29.08 18.47C25.47 22.08 20.73 23.88 15.99 23.88C11.26 23.88 6.52 22.08 2.91 18.47Z" stroke="#000000" stroke-opacity="1.000000" stroke-width="0.300000"/>
		<path id="Vector" d="M16 11.46C13.5 11.46 11.46 13.5 11.46 16C11.46 18.5 13.5 20.53 16 20.53C18.5 20.53 20.53 18.5 20.53 16C20.53 13.5 18.5 11.46 16 11.46ZM16 21.71C12.84 21.71 10.28 19.15 10.28 16C10.28 12.84 12.85 10.28 16 10.28C19.15 10.28 21.71 12.85 21.71 16C21.71 19.15 19.15 21.71 16 21.71Z" fill="#000000" fill-opacity="1.000000" fill-rule="nonzero"/>
		<path id="Vector" d="M11.46 16C11.46 18.5 13.5 20.53 16 20.53C18.5 20.53 20.53 18.5 20.53 16C20.53 13.5 18.5 11.46 16 11.46C13.5 11.46 11.46 13.5 11.46 16ZM10.28 16C10.28 12.84 12.85 10.28 16 10.28C19.15 10.28 21.71 12.85 21.71 16C21.71 19.15 19.15 21.71 16 21.71C12.84 21.71 10.28 19.15 10.28 16Z" stroke="#000000" stroke-opacity="1.000000" stroke-width="0.300000"/>
	</g>
</svg>
