<svg width="13.481262" height="12.351562" viewBox="0 0 13.4813 12.3516" fill="none" xmlns="http://www.w3.org/2000/svg" xmlns:xlink="http://www.w3.org/1999/xlink">
	<desc>
			Created with Pixso.
	</desc>
	<defs/>
	<path id="Vector" d="M12.95 1.12L4.92 1.12C4.7 0.47 4.08 0 3.35 0C2.62 0 2 0.47 1.78 1.12L0.52 1.12C0.23 1.12 0 1.36 0 1.65C0 1.94 0.23 2.18 0.52 2.18L1.78 2.18C2 2.83 2.62 3.31 3.35 3.31C4.08 3.31 4.7 2.83 4.92 2.18L12.95 2.18C13.24 2.18 13.48 1.94 13.48 1.65C13.48 1.36 13.24 1.12 12.95 1.12ZM3.35 2.25C3.01 2.25 2.74 1.98 2.74 1.65C2.74 1.32 3.01 1.05 3.35 1.05C3.68 1.05 3.95 1.32 3.95 1.65C3.95 1.98 3.68 2.25 3.35 2.25Z" fill="#A18A68" fill-opacity="1.000000" fill-rule="nonzero"/>
	<path id="Vector" d="M12.95 5.64L11.7 5.64C11.47 4.99 10.85 4.51 10.12 4.51C9.4 4.51 8.78 4.99 8.55 5.64L0.52 5.64C0.23 5.64 0 5.88 0 6.17C0 6.46 0.23 6.7 0.52 6.7L8.55 6.7C8.78 7.35 9.4 7.83 10.12 7.83C10.85 7.83 11.47 7.35 11.7 6.7L12.95 6.7C13.24 6.7 13.48 6.46 13.48 6.17C13.48 5.88 13.24 5.64 12.95 5.64ZM10.12 6.77C9.79 6.77 9.52 6.5 9.52 6.17C9.52 5.84 9.79 5.57 10.12 5.57C10.46 5.57 10.73 5.84 10.73 6.17C10.73 6.5 10.46 6.77 10.12 6.77Z" fill="#A18A68" fill-opacity="1.000000" fill-rule="nonzero"/>
	<path id="Vector" d="M12.95 10.16L7.18 10.16C6.96 9.51 6.34 9.03 5.61 9.03C4.88 9.03 4.26 9.51 4.04 10.16L0.52 10.16C0.23 10.16 0 10.4 0 10.69C0 10.98 0.23 11.22 0.52 11.22L4.04 11.22C4.26 11.87 4.88 12.35 5.61 12.35C6.34 12.35 6.96 11.87 7.18 11.22L12.95 11.22C13.24 11.22 13.48 10.98 13.48 10.69C13.48 10.4 13.24 10.16 12.95 10.16ZM5.61 11.29C5.27 11.29 5 11.02 5 10.69C5 10.36 5.27 10.09 5.61 10.09C5.94 10.09 6.21 10.36 6.21 10.69C6.21 11.02 5.94 11.29 5.61 11.29Z" fill="#A18A68" fill-opacity="1.000000" fill-rule="nonzero"/>
</svg>
