<svg width="25.000000" height="25.000000" viewBox="0 0 25 25" fill="none" xmlns="http://www.w3.org/2000/svg" xmlns:xlink="http://www.w3.org/1999/xlink">
	<desc>
			Created with Pixso.
	</desc>
	<defs>
		<clipPath id="clip2046_6470">
			<rect id="heart-svgrepo-com 1" width="25.000000" height="25.000000" fill="white" fill-opacity="0"/>
		</clipPath>
	</defs>
	<rect id="heart-svgrepo-com 1" width="25.000000" height="25.000000" fill="#FFFFFF" fill-opacity="0"/>
	<g clip-path="url(#clip2046_6470)">
		<path id="Vector" d="M11.34 23.12C11.65 23.44 12.07 23.61 12.51 23.61C12.94 23.61 13.37 23.43 13.67 23.12L22.83 13.96C24.23 12.57 24.99 10.72 25 8.76C25 6.79 24.23 4.94 22.84 3.55C21.45 2.16 19.6 1.39 17.63 1.39C15.7 1.39 13.88 2.13 12.5 3.48C11.11 2.13 9.29 1.38 7.35 1.38C5.39 1.38 3.54 2.15 2.15 3.53C0.76 4.92 0 6.78 0 8.74C0 10.71 0.76 12.56 2.16 13.95L11.34 23.12ZM3.04 4.42C4.19 3.27 5.73 2.63 7.36 2.63C8.99 2.63 10.53 3.27 11.68 4.43L12.06 4.8C12.18 4.92 12.34 4.99 12.51 4.99C12.67 4.99 12.83 4.92 12.95 4.8L13.32 4.44C14.47 3.28 16.01 2.64 17.64 2.64C19.28 2.64 20.81 3.28 21.96 4.43C23.12 5.59 23.75 7.12 23.75 8.75C23.75 10.38 23.11 11.92 21.96 13.08L12.79 22.24C12.64 22.39 12.37 22.39 12.22 22.24L3.04 13.07C1.89 11.91 1.25 10.37 1.25 8.74C1.25 7.11 1.89 5.58 3.04 4.42Z" fill="#000000" fill-opacity="1.000000" fill-rule="nonzero"/>
		<path id="Vector" d="M12.51 23.61C12.94 23.61 13.37 23.43 13.67 23.12L22.83 13.96C24.23 12.57 24.99 10.72 25 8.76C25 6.79 24.23 4.94 22.84 3.55C21.45 2.16 19.6 1.39 17.63 1.39C15.7 1.39 13.88 2.13 12.5 3.48C11.11 2.13 9.29 1.38 7.35 1.38C5.39 1.38 3.54 2.15 2.15 3.53C0.76 4.92 0 6.78 0 8.74C0 10.71 0.76 12.56 2.16 13.95L11.34 23.12C11.65 23.44 12.07 23.61 12.51 23.61ZM7.36 2.63C8.99 2.63 10.53 3.27 11.68 4.43L12.06 4.8C12.18 4.92 12.34 4.99 12.51 4.99C12.67 4.99 12.83 4.92 12.95 4.8L13.32 4.44C14.47 3.28 16.01 2.64 17.64 2.64C19.28 2.64 20.81 3.28 21.96 4.43C23.12 5.59 23.75 7.12 23.75 8.75C23.75 10.38 23.11 11.92 21.96 13.08L12.79 22.24C12.64 22.39 12.37 22.39 12.22 22.24L3.04 13.07C1.89 11.91 1.25 10.37 1.25 8.74C1.25 7.11 1.89 5.58 3.04 4.42C4.19 3.27 5.73 2.63 7.36 2.63Z" stroke="#000000" stroke-opacity="1.000000" stroke-width="0.300000"/>
	</g>
</svg>
