<svg width="19.000000" height="19.000000" viewBox="0 0 19 19" fill="none" xmlns="http://www.w3.org/2000/svg" xmlns:xlink="http://www.w3.org/1999/xlink">
	<desc>
			Created with Pixso.
	</desc>
	<defs/>
	<mask id="mask_512_0" fill="white">
		<path id="Icon color" d="M2.5 16.5L8 16.5C8.27612 16.5 8.5 16.7236 8.5 17L8.5 18C8.5 18.2764 8.27612 18.5 8 18.5L2.5 18.5C1.39551 18.5 0.5 17.6045 0.5 16.5L0.5 2.5C0.5 1.39551 1.39551 0.5 2.5 0.5L8 0.5C8.27612 0.5 8.5 0.723633 8.5 1L8.5 2C8.5 2.27637 8.27612 2.5 8 2.5L2.5 2.5L2.5 16.5ZM18.28 8.78027L13.1399 3.65039C13.0461 3.55566 12.9182 3.50195 12.7849 3.50195C12.6516 3.50195 12.5239 3.55566 12.4299 3.65039L11.72 4.36035C11.626 4.45215 11.573 4.57812 11.573 4.70996C11.573 4.8418 11.626 4.96777 11.72 5.05957L15.1699 8.5L5 8.5C4.72388 8.5 4.5 8.72363 4.5 9L4.5 10C4.5 10.2764 4.72388 10.5 5 10.5L15.1699 10.5L11.72 13.9404C11.6252 14.0342 11.572 14.1621 11.572 14.2949C11.572 14.4287 11.6252 14.5557 11.72 14.6504L12.4299 15.3496C12.5239 15.4443 12.6516 15.498 12.7849 15.498C12.9182 15.498 13.0461 15.4443 13.1399 15.3496L18.28 10.2197C18.4207 10.0791 18.4998 9.88867 18.5 9.69043L18.5 9.30957C18.4978 9.11133 18.4189 8.92188 18.28 8.78027Z" clip-rule="evenodd" fill="" fill-opacity="1.000000" fill-rule="evenodd"/>
	</mask>
	<path id="Icon color" d="M2.5 16.5L8 16.5C8.27612 16.5 8.5 16.7236 8.5 17L8.5 18C8.5 18.2764 8.27612 18.5 8 18.5L2.5 18.5C1.39551 18.5 0.5 17.6045 0.5 16.5L0.5 2.5C0.5 1.39551 1.39551 0.5 2.5 0.5L8 0.5C8.27612 0.5 8.5 0.723633 8.5 1L8.5 2C8.5 2.27637 8.27612 2.5 8 2.5L2.5 2.5L2.5 16.5ZM18.28 8.78027L13.1399 3.65039C13.0461 3.55566 12.9182 3.50195 12.7849 3.50195C12.6516 3.50195 12.5239 3.55566 12.4299 3.65039L11.72 4.36035C11.626 4.45215 11.573 4.57812 11.573 4.70996C11.573 4.8418 11.626 4.96777 11.72 5.05957L15.1699 8.5L5 8.5C4.72388 8.5 4.5 8.72363 4.5 9L4.5 10C4.5 10.2764 4.72388 10.5 5 10.5L15.1699 10.5L11.72 13.9404C11.6252 14.0342 11.572 14.1621 11.572 14.2949C11.572 14.4287 11.6252 14.5557 11.72 14.6504L12.4299 15.3496C12.5239 15.4443 12.6516 15.498 12.7849 15.498C12.9182 15.498 13.0461 15.4443 13.1399 15.3496L18.28 10.2197C18.4207 10.0791 18.4998 9.88867 18.5 9.69043L18.5 9.30957C18.4978 9.11133 18.4189 8.92188 18.28 8.78027Z" clip-rule="evenodd" fill="#000000" fill-opacity="1.000000" fill-rule="evenodd" mask="url(#mask_512_0)"/>
	<path id="Icon color" d="M2.5 16L8 16Q8.20312 16 8.3894 16.0791Q8.56885 16.1543 8.70703 16.293Q8.84521 16.4307 8.92114 16.6104Q9 16.7969 9 17L9 18Q9 18.2031 8.92114 18.3896Q8.84521 18.5693 8.70703 18.707Q8.56885 18.8457 8.3894 18.9209Q8.20312 19 8 19L2.5 19Q1.9917 19 1.52686 18.8037Q1.07788 18.6133 0.732178 18.2676Q0.386475 17.9219 0.196777 17.4736Q0 17.0078 0 16.5L0 2.5Q0 1.99219 0.196777 1.52637Q0.386475 1.07812 0.732178 0.732422Q1.07788 0.386719 1.52686 0.196289Q1.9917 0 2.5 0L8 0Q8.20312 0 8.3894 0.0791016Q8.56885 0.154297 8.70703 0.292969Q8.84521 0.430664 8.92114 0.610352Q9 0.796875 9 1L9 2Q9 2.20312 8.92114 2.38965Q8.84521 2.56934 8.70703 2.70703Q8.56885 2.8457 8.3894 2.9209Q8.20312 3 8 3L2.5 3L2.5 2.5L3 2.5L3 16.5L2.5 16.5L2.5 16ZM2 17L2 2L8 2Q8 2 8 2L8 1L8 1L2.5 1Q2.19458 1 1.91626 1.11719Q1.64722 1.23145 1.43945 1.43945Q1.23145 1.64746 1.11768 1.91602Q1 2.19434 1 2.5L1 16.5Q1 16.8057 1.11768 17.084Q1.23145 17.3525 1.43945 17.5605Q1.64722 17.7686 1.91626 17.8828Q2.19458 18 2.5 18L8 18Q8 18 8 18L8 17L8 17L2.5 17L2 17ZM17.9268 9.13379L12.7869 4.00391Q12.7849 4.00195 12.7849 4.00195Q12.7849 4.00195 12.7849 4.00195L12.0735 4.71387Q12.073 4.71387 12.073 4.70996Q12.073 4.70605 12.0698 4.70312L16.3796 9L5 9L5 9L5 10L5 10L16.3796 10L12.073 14.2939Q12.072 14.2949 12.072 14.2949Q12.072 14.2949 12.072 14.2949L12.781 14.9941Q12.7849 14.998 12.7849 14.998Q12.7849 14.998 12.7849 14.998L17.9268 9.86621Q18 9.79297 18 9.68945L18 9.30957Q17.9988 9.20703 17.9229 9.12988L17.9268 9.13379ZM18.6372 8.42969Q18.8088 8.60547 18.9031 8.83203Q18.9971 9.05859 19 9.30957L19 9.69043Q18.9998 9.93945 18.9045 10.1689Q18.8091 10.3984 18.6333 10.5742L13.4951 15.7021Q13.3542 15.8438 13.1697 15.9209Q12.9849 15.998 12.7849 15.998Q12.585 15.998 12.4004 15.9209Q12.2158 15.8438 12.0789 15.7061L11.3679 15.0049Q11.2258 14.8643 11.1489 14.6797Q11.072 14.4951 11.072 14.2949Q11.072 14.0947 11.1489 13.9102Q11.2258 13.7256 11.3669 13.5859L14.8169 10.1455L15.1699 10.5L15.1699 11L5 11Q4.79688 11 4.6106 10.9209Q4.43115 10.8457 4.29297 10.707Q4.15479 10.5693 4.07886 10.3896Q4 10.2031 4 10L4 9Q4 8.79688 4.07886 8.61035Q4.15479 8.43066 4.29297 8.29297Q4.43115 8.1543 4.6106 8.0791Q4.79688 8 5 8L15.1699 8L15.1699 8.5L14.8169 8.85449L11.3701 5.41699Q11.2275 5.27734 11.1501 5.09375Q11.073 4.90918 11.073 4.70996Q11.073 4.51074 11.1501 4.32617Q11.2275 4.14258 11.3665 4.00684L12.075 3.29785Q12.2158 3.15625 12.4004 3.0791Q12.585 3.00195 12.7849 3.00195Q12.9849 3.00195 13.1697 3.0791Q13.3542 3.15625 13.4932 3.2959L18.6333 8.42578L18.6372 8.42969Z" fill="#FFFFFF" fill-opacity="1.000000" fill-rule="nonzero"/>
</svg>
