<svg width="19.750000" height="19.739098" viewBox="0 0 19.75 19.7391" fill="none" xmlns="http://www.w3.org/2000/svg" xmlns:xlink="http://www.w3.org/1999/xlink">
	<desc>
			Created with Pixso.
	</desc>
	<defs/>
	<mask id="mask_3006_4039" fill="white">
		<path id="Icon color" d="M19.2402 17.7398L15.0176 13.515C14.8809 13.3749 14.7285 13.2509 14.5645 13.1454L13.5098 12.4166C15.6797 9.72844 15.6992 5.89384 13.5566 3.18298C11.416 0.472107 7.68164 -0.391518 4.56836 1.10338C1.45508 2.59827 -0.208984 6.05273 0.5625 9.42161C1.33398 12.7905 4.33594 15.1747 7.78906 15.1627C9.46484 15.1632 11.0918 14.5933 12.4004 13.5467L13.1914 14.6029C13.2871 14.7389 13.3926 14.8662 13.5098 14.9831L17.7305 19.2079C17.8301 19.3079 17.9648 19.3641 18.1055 19.3641C18.2461 19.3641 18.3809 19.3079 18.4805 19.2079L19.2188 18.4686C19.418 18.2702 19.4277 17.9494 19.2402 17.7398ZM2.51172 7.76911C2.51172 10.6857 4.875 13.0501 7.78906 13.0501C9.18945 13.0501 10.5312 12.4937 11.5195 11.5033C12.5098 10.5129 13.0664 9.16971 13.0664 7.76911C13.0664 4.85252 10.7031 2.48815 7.78906 2.48815C4.875 2.48815 2.51172 4.85252 2.51172 7.76911Z" clip-rule="evenodd" fill="" fill-opacity="1.000000" fill-rule="evenodd"/>
	</mask>
	<path id="Icon color" d="M19.2402 17.7398L15.0176 13.515C14.8809 13.3749 14.7285 13.2509 14.5645 13.1454L13.5098 12.4166C15.6797 9.72844 15.6992 5.89384 13.5566 3.18298C11.416 0.472107 7.68164 -0.391518 4.56836 1.10338C1.45508 2.59827 -0.208984 6.05273 0.5625 9.42161C1.33398 12.7905 4.33594 15.1747 7.78906 15.1627C9.46484 15.1632 11.0918 14.5933 12.4004 13.5467L13.1914 14.6029C13.2871 14.7389 13.3926 14.8662 13.5098 14.9831L17.7305 19.2079C17.8301 19.3079 17.9648 19.3641 18.1055 19.3641C18.2461 19.3641 18.3809 19.3079 18.4805 19.2079L19.2188 18.4686C19.418 18.2702 19.4277 17.9494 19.2402 17.7398ZM2.51172 7.76911C2.51172 10.6857 4.875 13.0501 7.78906 13.0501C9.18945 13.0501 10.5312 12.4937 11.5195 11.5033C12.5098 10.5129 13.0664 9.16971 13.0664 7.76911C13.0664 4.85252 10.7031 2.48815 7.78906 2.48815C4.875 2.48815 2.51172 4.85252 2.51172 7.76911Z" clip-rule="evenodd" fill="#000000" fill-opacity="1.000000" fill-rule="evenodd" mask="url(#mask_3006_4039)"/>
	<path id="Icon color" d="M18.9746 18.0048L14.752 13.7801Q14.5742 13.5969 14.3613 13.4611L14.3574 13.4576L12.9629 12.4955L13.2168 12.181Q13.9805 11.2367 14.3789 10.0968Q14.7695 8.98634 14.7754 7.80633Q14.7812 6.62631 14.4043 5.5118Q14.0156 4.36774 13.2637 3.41549Q12.5098 2.46326 11.4883 1.82189Q10.4902 1.1971 9.3418 0.931366Q8.19336 0.665634 7.02539 0.78936Q5.82422 0.916359 4.73047 1.44144Q3.63672 1.96652 2.78711 2.82405Q1.95703 3.65945 1.44531 4.72244Q0.933594 5.78545 0.796875 6.95444Q0.65625 8.15443 0.927734 9.33787Q1.19922 10.5213 1.84766 11.5402Q2.48047 12.5327 3.4043 13.2664Q4.32617 14 5.43555 14.3908Q6.57422 14.7919 7.78711 14.7877Q8.98242 14.788 10.1074 14.3935Q11.2344 13.9989 12.166 13.2538L12.4688 13.0123L13.4961 14.3839L13.5 14.3899Q13.623 14.5664 13.7734 14.7182L17.9961 18.9428Q18.041 18.9891 18.1055 18.9891Q18.168 18.9891 18.2129 18.9439L18.9531 18.2035Q18.998 18.1589 19 18.0975Q19.002 18.0362 18.9609 17.9906L19.2402 17.7398L18.9746 18.0048ZM19.5039 17.4747L19.5117 17.4817L19.5176 17.489Q19.7598 17.7578 19.75 18.1193Q19.7383 18.4807 19.4844 18.7336L18.7461 19.4719Q18.6191 19.6001 18.4531 19.6696Q18.2852 19.7391 18.1055 19.7391Q17.9238 19.7391 17.7578 19.6696Q17.5918 19.6001 17.4648 19.4729L13.2441 15.2481Q13.0449 15.0483 12.8828 14.8159L13.1914 14.6029L12.8926 14.8278L12.1016 13.7716L12.4004 13.5467L12.6348 13.8397Q11.6035 14.6645 10.3555 15.1013Q9.10938 15.5381 7.79102 15.5377Q6.44727 15.5424 5.1875 15.0981Q3.95898 14.6655 2.9375 13.8536Q1.91406 13.0417 1.21484 11.943Q0.496094 10.8149 0.197266 9.50534Q-0.103516 8.19578 0.0527344 6.86727Q0.203125 5.57337 0.769531 4.39705Q1.33594 3.22071 2.25391 2.29597Q3.19531 1.34647 4.40625 0.765312Q5.61719 0.184151 6.94531 0.0435181Q8.24023 -0.0934525 9.51172 0.200661Q10.7832 0.494774 11.8867 1.18645Q13.0195 1.89661 13.8516 2.95045Q14.6836 4.00426 15.1133 5.2709Q15.5332 6.50451 15.5254 7.81026Q15.5195 9.11602 15.0879 10.3452Q14.6445 11.6072 13.8008 12.6522L13.5098 12.4166L13.7227 12.108L14.7773 12.8368L14.5645 13.1454L14.7656 12.8296Q15.0508 13.0116 15.2832 13.25L19.5039 17.4747ZM2.88672 7.76911Q2.88672 8.76753 3.27148 9.67872Q3.64453 10.5591 4.32227 11.2383Q5.00195 11.9174 5.88086 12.2897Q6.79102 12.6751 7.78906 12.6751Q8.76367 12.6751 9.66406 12.3017Q10.5664 11.9283 11.2559 11.2383Q11.9453 10.5482 12.3184 9.64664Q12.6914 8.74503 12.6914 7.76911Q12.6914 6.77069 12.3066 5.8595Q11.9336 4.97915 11.2559 4.29997Q10.5762 3.62082 9.69727 3.24849Q8.78711 2.86315 7.78906 2.86315Q6.79102 2.86315 5.88086 3.24849Q5.00195 3.62082 4.32227 4.29997Q3.64453 4.97915 3.27148 5.8595Q2.88672 6.77069 2.88672 7.76911ZM2.13672 7.76911Q2.13672 6.61871 2.58203 5.56754Q3.00977 4.55248 3.79297 3.76985Q4.57422 2.98719 5.58984 2.55782Q6.63867 2.11315 7.78906 2.11315Q8.93945 2.11315 9.98828 2.55782Q11.0039 2.98719 11.7852 3.76985Q12.5684 4.55247 12.9961 5.56754Q13.4414 6.61871 13.4414 7.76911Q13.4414 8.8941 13.0098 9.93346Q12.5801 10.9728 11.7852 11.7684Q10.9902 12.5639 9.95117 12.9945Q8.91406 13.4251 7.78906 13.4251Q6.63867 13.4251 5.58984 12.9804Q4.57422 12.551 3.79297 11.7684Q3.00977 10.9857 2.58203 9.97068Q2.13672 8.91951 2.13672 7.76911Z" fill="#FFFFFF" fill-opacity="1.000000" fill-rule="nonzero"/>
</svg>
