<svg width="25.000000" height="25.000000" viewBox="0 0 25 25" fill="none" xmlns="http://www.w3.org/2000/svg" xmlns:xlink="http://www.w3.org/1999/xlink">
	<desc>
			Created with Pixso.
	</desc>
	<defs>
		<clipPath id="clip2046_3746">
			<rect id="shopping-cart 1" width="25.000000" height="25.000000" fill="white" fill-opacity="0"/>
		</clipPath>
	</defs>
	<rect id="shopping-cart 1" width="25.000000" height="25.000000" fill="#FFFFFF" fill-opacity="0"/>
	<g clip-path="url(#clip2046_3746)">
		<path id="Vector" d="M8.05 16.16L8.05 16.16C8.05 16.16 8.05 16.16 8.05 16.16L21.33 16.16C21.66 16.16 21.95 15.94 22.04 15.63L24.97 5.37C25.03 5.15 24.99 4.91 24.85 4.73C24.71 4.55 24.49 4.44 24.26 4.44L6.36 4.44L5.84 2.08C5.76 1.75 5.47 1.51 5.12 1.51L0.73 1.51C0.32 1.51 0 1.84 0 2.24C0 2.65 0.32 2.97 0.73 2.97L4.53 2.97C4.63 3.39 7.04 14.25 7.18 14.87C6.4 15.21 5.85 15.99 5.85 16.89C5.85 18.1 6.84 19.09 8.05 19.09L21.33 19.09C21.74 19.09 22.07 18.76 22.07 18.35C22.07 17.95 21.74 17.62 21.33 17.62L8.05 17.62C7.65 17.62 7.32 17.29 7.32 16.89C7.32 16.49 7.65 16.16 8.05 16.16ZM23.29 5.9L20.78 14.69L8.64 14.69L6.69 5.9L23.29 5.9Z" fill="#000000" fill-opacity="1.000000" fill-rule="nonzero"/>
		<path id="Vector" d="M7.32 21.28C7.32 22.5 8.3 23.48 9.52 23.48C10.73 23.48 11.71 22.5 11.71 21.28C11.71 20.07 10.73 19.09 9.52 19.09C8.3 19.09 7.32 20.07 7.32 21.28ZM9.52 20.55C9.92 20.55 10.25 20.88 10.25 21.28C10.25 21.69 9.92 22.02 9.52 22.02C9.11 22.02 8.78 21.69 8.78 21.28C8.78 20.88 9.11 20.55 9.52 20.55Z" fill="#000000" fill-opacity="1.000000" fill-rule="nonzero"/>
		<path id="Vector" d="M17.67 21.28C17.67 22.5 18.66 23.48 19.87 23.48C21.08 23.48 22.07 22.5 22.07 21.28C22.07 20.07 21.08 19.09 19.87 19.09C18.66 19.09 17.67 20.07 17.67 21.28ZM19.87 20.55C20.27 20.55 20.6 20.88 20.6 21.28C20.6 21.69 20.27 22.02 19.87 22.02C19.46 22.02 19.14 21.69 19.14 21.28C19.14 20.88 19.46 20.55 19.87 20.55Z" fill="#000000" fill-opacity="1.000000" fill-rule="nonzero"/>
	</g>
</svg>
