<svg width="25.000000" height="8.744934" viewBox="0 0 25 8.74493" fill="none" xmlns="http://www.w3.org/2000/svg" xmlns:xlink="http://www.w3.org/1999/xlink">
	<desc>
			Created with Pixso.
	</desc>
	<defs/>
	<path id="Icon color" d="M0 4.99L0 3.74C0 3.39 0.27 3.11 0.62 3.11L20 3.11L20 0.61C20 0.36 20.16 0.14 20.39 0.04C20.62 -0.05 20.89 0 21.06 0.17L24.82 3.92C25.06 4.17 25.06 4.56 24.82 4.81L21.06 8.56C20.88 8.74 20.61 8.79 20.38 8.69C20.15 8.59 20 8.36 20 8.11L20 5.61L0.62 5.61C0.27 5.61 0 5.33 0 4.99Z" fill="#707070" fill-opacity="1.000000" fill-rule="nonzero"/>
	<path id="Icon color" d="M0 3.74C0 3.39 0.27 3.11 0.62 3.11L20 3.11L20 0.61C20 0.36 20.16 0.14 20.39 0.04C20.62 -0.05 20.89 0 21.06 0.17L24.82 3.92C25.06 4.17 25.06 4.56 24.82 4.81L21.06 8.56C20.88 8.74 20.61 8.79 20.38 8.69C20.15 8.59 20 8.36 20 8.11L20 5.61L0.62 5.61C0.27 5.61 0 5.33 0 4.99L0 3.74Z" stroke="#979797" stroke-opacity="0" stroke-width="0.000000"/>
</svg>
